<svg version="1.1" xmlns="http://www.w3.org/2000/svg" viewBox="0 0 1974.2911712733494 904.2254183523617" width="3948.582342546699" height="1808.4508367047233">
  <!-- svg-source:excalidraw -->

  <defs>
    <style class="style-fonts">
      @font-face {
        font-family: "Virgil";
        src: url("https://excalidraw.com/Virgil.woff2");
      }
      @font-face {
        font-family: "Cascadia";
        src: url("https://excalidraw.com/Cascadia.woff2");
      }
      @font-face {
        font-family: "Assistant";
        src: url("https://excalidraw.com/Assistant-Regular.woff2");
      }
    </style>

  </defs>
  <rect x="0" y="0" width="1974.2911712733494" height="904.2254183523617" fill="#ffffff"></rect><g stroke-linecap="round" transform="translate(407 129.20063438522516) rotate(0 238 210.10165315194138)"><path d="M32 0 C190.48 -0.58, 347.19 -1.75, 444 0 M32 0 C191.77 -1.49, 351.95 -1.4, 444 0 M444 0 C466.12 1.15, 477.92 9.79, 476 32 M444 0 C466.1 2.23, 474.98 12.21, 476 32 M476 32 C476.97 145.36, 475.17 261.43, 476 388.2 M476 32 C476.11 163.53, 476.41 293.98, 476 388.2 M476 388.2 C476.45 410.84, 465.9 419.73, 444 420.2 M476 388.2 C474.96 407.48, 464.81 421.27, 444 420.2 M444 420.2 C311.58 420.22, 177.75 418.44, 32 420.2 M444 420.2 C304.7 418.88, 166 419.68, 32 420.2 M32 420.2 C11.83 419.55, -0.22 409.7, 0 388.2 M32 420.2 C12.96 419.9, 0.08 408.58, 0 388.2 M0 388.2 C1.57 260.28, 1.94 130.49, 0 32 M0 388.2 C-1.77 281.11, -1.6 173.01, 0 32 M0 32 C1.95 10.34, 9.81 1.87, 32 0 M0 32 C-0.07 11.13, 9.15 1.81, 32 0" stroke="#1e1e1e" stroke-width="2" fill="none"></path></g><g stroke-linecap="round" transform="translate(730 195.20063438522516) rotate(0 65.5 66)"><path d="M82.5 16.5 C92.35 27.36, 101.65 36.51, 114.5 49.5 M82.5 16.5 C93.29 27.53, 102.75 37.82, 114.5 49.5 M114.5 49.5 C132.84 65.99, 131.36 66.92, 114.5 82.5 M114.5 49.5 C131.83 65.95, 132 64.53, 114.5 82.5 M114.5 82.5 C105.98 90.5, 99.97 98.05, 82.5 115.5 M114.5 82.5 C105.21 90.4, 96.47 99.29, 82.5 115.5 M82.5 115.5 C65.84 132.93, 65.22 133.69, 49.5 115.5 M82.5 115.5 C65.68 131.27, 63.9 133, 49.5 115.5 M49.5 115.5 C42.17 108.16, 36.65 99.87, 16.5 82.5 M49.5 115.5 C37.17 103.9, 24.49 91.04, 16.5 82.5 M16.5 82.5 C0.81 67.87, -1.97 67.16, 16.5 49.5 M16.5 82.5 C-2.29 65.04, 0.21 65.36, 16.5 49.5 M16.5 49.5 C26.13 40.43, 37.23 31.31, 49.5 16.5 M16.5 49.5 C26.51 39.11, 35.8 28.94, 49.5 16.5 M49.5 16.5 C64.92 1.07, 67.98 -1.02, 82.5 16.5 M49.5 16.5 C64.15 -1.27, 65.86 -1.98, 82.5 16.5" stroke="#1e1e1e" stroke-width="2" fill="none"></path></g><g transform="translate(769.3900012969971 236.20063438522516) rotate(0 25.85999870300293 25)"><text x="25.85999870300293" y="17.52" font-family="Virgil, Segoe UI Emoji" font-size="20px" fill="#1e1e1e" text-anchor="middle" style="white-space: pre;" direction="ltr" dominant-baseline="alphabetic">vault</text><text x="25.85999870300293" y="42.519999999999996" font-family="Virgil, Segoe UI Emoji" font-size="20px" fill="#1e1e1e" text-anchor="middle" style="white-space: pre;" direction="ltr" dominant-baseline="alphabetic">1</text></g><g stroke-linecap="round" transform="translate(729.5 339.20063438522516) rotate(0 65.5 66)"><path d="M82.5 16.5 C89.83 22.98, 98.88 32.83, 114.5 49.5 M82.5 16.5 C93.01 27.86, 104.77 39.06, 114.5 49.5 M114.5 49.5 C130.8 64.81, 129.17 64.83, 114.5 82.5 M114.5 49.5 C131.54 67.12, 132.01 64.12, 114.5 82.5 M114.5 82.5 C105.3 92.38, 97.94 100.87, 82.5 115.5 M114.5 82.5 C107.25 89.53, 101.66 95.86, 82.5 115.5 M82.5 115.5 C67.62 133.33, 64.55 131.91, 49.5 115.5 M82.5 115.5 C66.25 132.78, 67.43 133.87, 49.5 115.5 M49.5 115.5 C38.55 104.8, 29.85 96.46, 16.5 82.5 M49.5 115.5 C39.27 104.36, 27.24 91.68, 16.5 82.5 M16.5 82.5 C0.39 67.81, 0.72 67.43, 16.5 49.5 M16.5 82.5 C0.02 67.16, 0.73 67.23, 16.5 49.5 M16.5 49.5 C29.23 36.2, 38.1 28.53, 49.5 16.5 M16.5 49.5 C25.04 40.29, 34.41 30.34, 49.5 16.5 M49.5 16.5 C66.91 -0.66, 67.06 -0.04, 82.5 16.5 M49.5 16.5 C63.95 0.66, 65.79 -0.09, 82.5 16.5" stroke="#1e1e1e" stroke-width="2" fill="none"></path></g><g transform="translate(768.8900012969971 380.20063438522516) rotate(0 25.85999870300293 25)"><text x="25.85999870300293" y="17.52" font-family="Virgil, Segoe UI Emoji" font-size="20px" fill="#1e1e1e" text-anchor="middle" style="white-space: pre;" direction="ltr" dominant-baseline="alphabetic">vault</text><text x="25.85999870300293" y="42.519999999999996" font-family="Virgil, Segoe UI Emoji" font-size="20px" fill="#1e1e1e" text-anchor="middle" style="white-space: pre;" direction="ltr" dominant-baseline="alphabetic">2</text></g><g stroke-linecap="round" transform="translate(460 224.20063438522516) rotate(0 111.5 107)"><path d="M140 27 C160.03 48.46, 182.43 66.45, 195 81 M140 27 C157.85 45.68, 177.52 63.59, 195 81 M195 81 C224.14 109.99, 224.28 109.96, 195 135 M195 81 C224.14 109.15, 222.21 108.28, 195 135 M195 135 C172.39 155.33, 151.37 175.99, 140 187 M195 135 C176.87 151.34, 159.39 169.65, 140 187 M140 187 C112.41 213.1, 112.14 213.29, 84 187 M140 187 C111.48 215.1, 112.99 213.24, 84 187 M84 187 C72.42 174.27, 57.35 164, 28 135 M84 187 C70.96 176.37, 58.58 163.73, 28 135 M28 135 C-1.31 107.17, -1.7 108.5, 28 81 M28 135 C1.53 109.34, 0.61 108.23, 28 81 M28 81 C48.46 60.54, 66.25 44.42, 84 27 M28 81 C42.52 67.37, 55.16 54.19, 84 27 M84 27 C110.27 0.44, 110.34 0.57, 140 27 M84 27 C111.62 2.2, 110.65 -1.2, 140 27" stroke="#1e1e1e" stroke-width="2" fill="none"></path></g><g transform="translate(530.6699981689453 318.70063438522516) rotate(0 40.83000183105469 12.5)"><text x="40.83000183105469" y="17.52" font-family="Virgil, Segoe UI Emoji" font-size="20px" fill="#1e1e1e" text-anchor="middle" style="white-space: pre;" direction="ltr" dominant-baseline="alphabetic">Protocol</text></g><g stroke-linecap="round"><g transform="translate(679 330.20063438522516) rotate(0 26 -34.5)"><path d="M-0.98 -0.51 C7.62 -12.28, 43.43 -58.15, 52.19 -69.57" stroke="#1e1e1e" stroke-width="2.5" fill="none" stroke-dasharray="8 10"></path></g></g><mask></mask><g stroke-linecap="round"><g transform="translate(679.8985113535077 337.74217955241807) rotate(0 25.5 32)"><path d="M0.54 -1.07 C9.02 9.59, 41.5 52.53, 50.1 63.56" stroke="#1e1e1e" stroke-width="2.5" fill="none" stroke-dasharray="8 10"></path></g></g><mask></mask><g stroke-linecap="round" transform="translate(496 433.20063438522516) rotate(0 74.5 37.5)"><path d="M18.75 0 C62.01 0.21, 108.87 2.01, 130.25 0 M18.75 0 C57.95 -0.41, 99.19 -1.17, 130.25 0 M130.25 0 C141.24 1.69, 148.29 6.81, 149 18.75 M130.25 0 C141.34 2.12, 149.01 5.68, 149 18.75 M149 18.75 C150.36 28.99, 149.27 34.58, 149 56.25 M149 18.75 C148.04 28.53, 148.35 36.62, 149 56.25 M149 56.25 C149.72 68.75, 144.22 76.96, 130.25 75 M149 56.25 C150.51 67.78, 140.87 76.93, 130.25 75 M130.25 75 C92.9 75.26, 58.13 76.19, 18.75 75 M130.25 75 C95.39 75.05, 60.82 75.24, 18.75 75 M18.75 75 C6.69 73.11, -1.25 69.68, 0 56.25 M18.75 75 C5.06 74.74, 0.01 66.65, 0 56.25 M0 56.25 C-1.16 42.5, 0.18 26.91, 0 18.75 M0 56.25 C-0.54 42.81, -0.08 28.9, 0 18.75 M0 18.75 C0.12 8.13, 5.54 1.08, 18.75 0 M0 18.75 C-2.05 7.97, 6.57 -0.7, 18.75 0" stroke="#1e1e1e" stroke-width="2" fill="none"></path></g><g transform="translate(528.8699951171875 458.20063438522516) rotate(0 41.6300048828125 12.5)"><text x="41.6300048828125" y="17.52" font-family="Virgil, Segoe UI Emoji" font-size="20px" fill="#1e1e1e" text-anchor="middle" style="white-space: pre;" direction="ltr" dominant-baseline="alphabetic">liquidate</text></g><g stroke-linecap="round" transform="translate(195 586.2006343852252) rotate(0 89 89)"><path d="M92.38 -0.92 C103.35 -1.94, 115.69 3.27, 125.9 8.15 C136.12 13.02, 145.95 20.29, 153.66 28.33 C161.36 36.37, 168.12 45.99, 172.13 56.39 C176.13 66.78, 177.88 79.33, 177.68 90.68 C177.47 102.03, 175.57 113.88, 170.89 124.5 C166.21 135.13, 157.98 146.56, 149.6 154.42 C141.22 162.29, 131.19 167.68, 120.62 171.68 C110.04 175.69, 97.41 178.59, 86.16 178.45 C74.91 178.3, 63.29 175.46, 53.12 170.81 C42.94 166.16, 33.02 158.76, 25.1 150.55 C17.19 142.33, 9.76 132.14, 5.63 121.51 C1.51 110.88, -0.13 98.26, 0.34 86.76 C0.81 75.25, 3.91 62.81, 8.46 52.48 C13.01 42.14, 19.38 32.6, 27.62 24.77 C35.86 16.94, 46.97 9.74, 57.9 5.48 C68.83 1.21, 86.86 -0.11, 93.2 -0.81 C99.53 -1.52, 95.78 -0.56, 95.9 1.22 M91.77 0.38 C102.64 -1.09, 114.61 1.95, 125.12 6.66 C135.63 11.38, 146.88 20.46, 154.84 28.67 C162.8 36.89, 169.17 45.35, 172.86 55.94 C176.56 66.52, 177.6 80.77, 177 92.17 C176.4 103.57, 173.86 114.15, 169.24 124.33 C164.62 134.51, 157.29 145.34, 149.31 153.25 C141.32 161.16, 131.75 167.77, 121.35 171.78 C110.95 175.79, 98.12 177.52, 86.9 177.33 C75.68 177.14, 64.51 175.23, 54.04 170.63 C43.56 166.04, 31.97 158.15, 24.04 149.76 C16.11 141.37, 10.49 130.97, 6.45 120.3 C2.42 109.63, -0.3 96.77, -0.17 85.75 C-0.05 74.73, 2.78 64.25, 7.2 54.19 C11.61 44.13, 18.06 33.36, 26.3 25.38 C34.55 17.4, 45.99 10.3, 56.69 6.3 C67.4 2.29, 84.6 2.15, 90.53 1.35 C96.47 0.55, 92.21 0.17, 92.3 1.51" stroke="#1e1e1e" stroke-width="2" fill="none"></path></g><g transform="translate(242.46749800027618 662.7681308596225) rotate(0 41.599998474121094 12.5)"><text x="41.599998474121094" y="17.52" font-family="Virgil, Segoe UI Emoji" font-size="20px" fill="#1e1e1e" text-anchor="middle" style="white-space: pre;" direction="ltr" dominant-baseline="alphabetic">searcher</text></g><g stroke-linecap="round" transform="translate(10 179.20063438522516) rotate(0 145 140.5)"><path d="M212.41 15.54 C225.85 20.13, 237.14 32.53, 247.67 42.79 C258.2 53.05, 268.83 64.2, 275.57 77.12 C282.32 90.05, 286.21 106.03, 288.15 120.35 C290.08 134.67, 289.66 149.01, 287.19 163.05 C284.72 177.09, 280.21 191.75, 273.32 204.6 C266.43 217.46, 256.48 229.82, 245.87 240.17 C235.25 250.52, 222.86 260.08, 209.65 266.7 C196.44 273.32, 181.49 277.67, 166.62 279.87 C151.75 282.08, 135.21 282.51, 120.42 279.93 C105.63 277.34, 91.03 271.1, 77.86 264.38 C64.7 257.66, 51.95 249.79, 41.42 239.62 C30.9 229.45, 21.44 216.3, 14.7 203.37 C7.97 190.44, 3.3 176.44, 1.02 162.03 C-1.25 147.62, -1.38 131.35, 1.04 116.93 C3.46 102.51, 8.5 88.41, 15.56 75.51 C22.62 62.6, 32.58 49.73, 43.4 39.5 C54.22 29.27, 67.06 20.33, 80.49 14.14 C93.92 7.95, 109.14 4.35, 123.98 2.38 C138.83 0.4, 154.52 -0.12, 169.56 2.27 C184.59 4.67, 206.45 13.51, 214.21 16.73 C221.98 19.95, 217.26 19.34, 216.15 21.6 M112.5 4.37 C125.77 -0.59, 141.51 0.48, 156.28 1.42 C171.05 2.36, 187.09 4.42, 201.11 10 C215.13 15.57, 229.33 25.47, 240.4 34.85 C251.48 44.23, 260.17 54.21, 267.55 66.27 C274.93 78.32, 281.13 93.08, 284.69 107.16 C288.25 121.23, 290.06 135.97, 288.9 150.73 C287.74 165.5, 283.19 182.5, 277.72 195.76 C272.26 209.03, 265.61 219.77, 256.11 230.33 C246.61 240.89, 233.64 251.16, 220.71 259.13 C207.78 267.11, 192.98 274.55, 178.52 278.18 C164.06 281.81, 148.82 282.48, 133.96 280.92 C119.09 279.35, 103.36 274.26, 89.34 268.79 C75.33 263.31, 61.25 257.34, 49.86 248.07 C38.48 238.8, 28.56 225.65, 21.03 213.18 C13.51 200.72, 8.26 187.26, 4.71 173.3 C1.16 159.33, -1.17 143.99, -0.27 129.39 C0.62 114.79, 4.4 99.32, 10.09 85.7 C15.77 72.09, 24.09 58.4, 33.83 47.7 C43.58 36.99, 55.44 28.96, 68.55 21.48 C81.65 14.01, 105.45 5.27, 112.46 2.84 C119.48 0.42, 110.37 4.32, 110.63 6.95" stroke="#1e1e1e" stroke-width="2" fill="none"></path></g><g transform="translate(132.00951764347795 307.3521316285153) rotate(0 22.959999084472656 12.5)"><text x="22.959999084472656" y="17.52" font-family="Virgil, Segoe UI Emoji" font-size="20px" fill="#1e1e1e" text-anchor="middle" style="white-space: pre;" direction="ltr" dominant-baseline="alphabetic">miner</text></g><g mask="url(#mask-v-A9aAicBb41RLKMw4P_8)" stroke-linecap="round"><g transform="translate(342 600.2006343852252) rotate(0 206 -85)"><path d="M-1.09 -0.79 C26.27 -13.43, 94.36 -47.33, 163.11 -75.56 C231.85 -103.78, 369.74 -154.51, 411.39 -170.13 M0.53 1.42 C27.93 -11.62, 94.44 -49.06, 162.74 -77.44 C231.03 -105.83, 368.46 -153.22, 410.3 -168.88" stroke="#1e1e1e" stroke-width="1" fill="none"></path></g><g transform="translate(342 600.2006343852252) rotate(0 206 -85)"><path d="M391.11 -152.87 C393.83 -154.25, 399.96 -160.51, 410.3 -168.88 M391.11 -152.87 C397.29 -157.27, 402.52 -162.44, 410.3 -168.88" stroke="#1e1e1e" stroke-width="1" fill="none"></path></g><g transform="translate(342 600.2006343852252) rotate(0 206 -85)"><path d="M385.3 -168.95 C389.3 -166.87, 396.66 -169.71, 410.3 -168.88 M385.3 -168.95 C393.3 -168.74, 400.2 -169.26, 410.3 -168.88" stroke="#1e1e1e" stroke-width="1" fill="none"></path></g></g><mask id="mask-v-A9aAicBb41RLKMw4P_8"><rect x="0" y="0" fill="#fff" width="854" height="870.2006343852252"></rect><rect x="452.99000549316406" y="511.70063438522516" fill="#000" width="102.01998901367188" height="25" opacity="1"></rect></mask><g transform="translate(452.99000549316406 511.70063438522516) rotate(0 94.15871613286436 4.142407521326106)"><text x="51.00999450683594" y="17.52" font-family="Virgil, Segoe UI Emoji" font-size="20px" fill="#1e1e1e" text-anchor="middle" style="white-space: pre;" direction="ltr" dominant-baseline="alphabetic">perform liq</text></g><g mask="url(#mask-TLzfoLMP3fOehL4RrB7m5)" stroke-linecap="round"><g transform="translate(728.8512783739716 408.55822686389934) rotate(0 -206.5 87.5)"><path d="M-0.46 -0.87 C-43.7 0.79, -190.68 -20.11, -259.61 9.05 C-328.54 38.21, -388.28 146.42, -414.03 174.08 M1.51 1.29 C-41.85 3.14, -191.49 -18.85, -260.35 10.09 C-329.22 39.02, -386 147.24, -411.67 174.91" stroke="#1e1e1e" stroke-width="1" fill="none"></path></g><g transform="translate(728.8512783739716 408.55822686389934) rotate(0 -206.5 87.5)"><path d="M-404.69 150.9 C-408.33 158.42, -410.46 162.95, -411.67 174.91 M-404.69 150.9 C-406.79 155.73, -407.67 160.64, -411.67 174.91" stroke="#1e1e1e" stroke-width="1" fill="none"></path></g><g transform="translate(728.8512783739716 408.55822686389934) rotate(0 -206.5 87.5)"><path d="M-390.89 161 C-398.41 165.56, -404.51 167.2, -411.67 174.91 M-390.89 161 C-395.98 163.58, -399.93 166.24, -411.67 174.91" stroke="#1e1e1e" stroke-width="1" fill="none"></path></g></g><mask id="mask-TLzfoLMP3fOehL4RrB7m5"><rect x="0" y="0" fill="#fff" width="1241.8512783739716" height="683.5582268638993"></rect><rect x="427.1712780687958" y="406.05822686389934" fill="#000" width="83.36000061035156" height="25" opacity="1"></rect></mask><g transform="translate(427.1712780687958 406.05822686389934) rotate(0 95.42047327009962 86.66304073321493)"><text x="41.68000030517578" y="17.52" font-family="Virgil, Segoe UI Emoji" font-size="20px" fill="#1e1e1e" text-anchor="middle" style="white-space: pre;" direction="ltr" dominant-baseline="alphabetic">liq bonus</text></g><g mask="url(#mask-1H4CnnMavsdtKB56QezFa)" stroke-linecap="round"><g transform="translate(267.2595270350762 583.0375936520102) rotate(0 -42 -61.5)"><path d="M1.08 0.69 C-6.75 -9.68, -33.22 -41.37, -47.5 -62.14 C-61.78 -82.91, -78.7 -113.96, -84.59 -123.92 M0.19 0.01 C-7.71 -10.71, -33.88 -43.3, -48.19 -63.81 C-62.5 -84.33, -79.42 -113.07, -85.67 -123.09" stroke="#1e1e1e" stroke-width="1" fill="none"></path></g><g transform="translate(267.2595270350762 583.0375936520102) rotate(0 -42 -61.5)"><path d="M-66.13 -107.49 C-70.04 -110.52, -74.81 -116.36, -85.67 -123.09 M-66.13 -107.49 C-69.84 -111.71, -75.7 -114.81, -85.67 -123.09" stroke="#1e1e1e" stroke-width="1" fill="none"></path></g><g transform="translate(267.2595270350762 583.0375936520102) rotate(0 -42 -61.5)"><path d="M-80.73 -98.58 C-80.87 -104.04, -81.87 -112.18, -85.67 -123.09 M-80.73 -98.58 C-81.26 -104.91, -83.87 -110, -85.67 -123.09" stroke="#1e1e1e" stroke-width="1" fill="none"></path></g></g><mask id="mask-1H4CnnMavsdtKB56QezFa"><rect x="0" y="0" fill="#fff" width="451.2595270350762" height="806.0375936520102"></rect><rect x="206.48952657731252" y="507.5375936520102" fill="#000" width="25.540000915527344" height="25" opacity="1"></rect></mask><g transform="translate(206.48952657731252 507.5375936520102) rotate(0 18.476428593425084 13.88583658002318)"><text x="12.770000457763672" y="17.52" font-family="Virgil, Segoe UI Emoji" font-size="20px" fill="#1e1e1e" text-anchor="middle" style="white-space: pre;" direction="ltr" dominant-baseline="alphabetic">tip</text></g><g transform="translate(587.4623982737887 148.8624737810511) rotate(0 68.06063751234967 12.5)"><text x="0" y="17.52" font-family="Virgil, Segoe UI Emoji" font-size="20px" fill="#1e1e1e" text-anchor="start" style="white-space: pre;" direction="ltr" dominant-baseline="alphabetic">Target chain</text></g><g stroke-linecap="round" transform="translate(1488.2911712733494 129.73420620688853) rotate(0 238 316.3760136043894)"><path d="M32 0 C121.93 2.4, 211.56 2.48, 444 0 M32 0 C145.44 1.67, 259.58 1.56, 444 0 M444 0 C464.21 -0.1, 477.29 10.41, 476 32 M444 0 C463.33 -0.49, 478.08 8.94, 476 32 M476 32 C474.29 185.56, 473.03 338.1, 476 600.75 M476 32 C477.4 215.92, 477.32 399.72, 476 600.75 M476 600.75 C474.23 622.27, 465.18 631.93, 444 632.75 M476 600.75 C476.72 620.24, 465.49 633.52, 444 632.75 M444 632.75 C334.15 633.43, 223.65 632.91, 32 632.75 M444 632.75 C298 634.65, 151.4 634.51, 32 632.75 M32 632.75 C11.78 632.93, 0.22 622.78, 0 600.75 M32 632.75 C9.35 631.59, -0.61 621.29, 0 600.75 M0 600.75 C-0.95 377.43, 0.24 155.81, 0 32 M0 600.75 C0.22 462.81, -0.12 324.49, 0 32 M0 32 C-1.35 11.76, 9.88 -1.15, 32 0 M0 32 C2.14 12.78, 12.12 -0.71, 32 0" stroke="#1e1e1e" stroke-width="2" fill="none"></path></g><g stroke-linecap="round" transform="translate(1811.2911712733494 195.73420620688853) rotate(0 65.5 66)"><path d="M82.5 16.5 C91.75 25.41, 96.85 31.82, 114.5 49.5 M82.5 16.5 C88.16 22.67, 94.94 30.42, 114.5 49.5 M114.5 49.5 C132.29 65.74, 129.26 65.57, 114.5 82.5 M114.5 49.5 C133.08 64.27, 130.3 63.74, 114.5 82.5 M114.5 82.5 C103.73 90.64, 96.88 102.66, 82.5 115.5 M114.5 82.5 C106.07 90.49, 96.97 99.75, 82.5 115.5 M82.5 115.5 C65.85 131.18, 66.62 130.4, 49.5 115.5 M82.5 115.5 C66.15 132.77, 65.24 132.33, 49.5 115.5 M49.5 115.5 C38.13 104.51, 29.49 92.6, 16.5 82.5 M49.5 115.5 C36.51 101.56, 23.72 89.32, 16.5 82.5 M16.5 82.5 C0.22 66.69, -1.15 64.99, 16.5 49.5 M16.5 82.5 C-0.61 65.2, 2.1 66.47, 16.5 49.5 M16.5 49.5 C29.77 39.47, 38.17 27.08, 49.5 16.5 M16.5 49.5 C23.79 41.29, 31.53 34.11, 49.5 16.5 M49.5 16.5 C65.21 -1.15, 67.86 1.84, 82.5 16.5 M49.5 16.5 C67.46 -0.71, 65.21 0.46, 82.5 16.5" stroke="#1e1e1e" stroke-width="2" fill="none"></path></g><g transform="translate(1850.6811725703465 236.73420620688853) rotate(0 25.85999870300293 25)"><text x="25.85999870300293" y="17.52" font-family="Virgil, Segoe UI Emoji" font-size="20px" fill="#1e1e1e" text-anchor="middle" style="white-space: pre;" direction="ltr" dominant-baseline="alphabetic">vault</text><text x="25.85999870300293" y="42.519999999999996" font-family="Virgil, Segoe UI Emoji" font-size="20px" fill="#1e1e1e" text-anchor="middle" style="white-space: pre;" direction="ltr" dominant-baseline="alphabetic">1</text></g><g stroke-linecap="round" transform="translate(1810.7911712733494 339.73420620688853) rotate(0 65.5 66)"><path d="M82.5 16.5 C92.75 26.99, 105.31 40.15, 114.5 49.5 M82.5 16.5 C89.57 23.21, 94.67 29.94, 114.5 49.5 M114.5 49.5 C132.81 64.5, 130.39 64.04, 114.5 82.5 M114.5 49.5 C130.68 67.5, 131.66 63.89, 114.5 82.5 M114.5 82.5 C106.41 90.49, 99.54 97.68, 82.5 115.5 M114.5 82.5 C106.36 90.14, 98.97 97.76, 82.5 115.5 M82.5 115.5 C66.13 132.67, 65.34 132.29, 49.5 115.5 M82.5 115.5 C66.45 132.24, 66.51 131.09, 49.5 115.5 M49.5 115.5 C42.18 107.51, 30.28 97.68, 16.5 82.5 M49.5 115.5 C41.92 108.36, 33.72 100, 16.5 82.5 M16.5 82.5 C-0.53 65.3, 1.83 66.4, 16.5 49.5 M16.5 82.5 C0.98 64.58, -1.86 68.02, 16.5 49.5 M16.5 49.5 C27.05 38.61, 40.6 25.37, 49.5 16.5 M16.5 49.5 C25.63 39.44, 36.26 31.63, 49.5 16.5 M49.5 16.5 C67.27 -0.62, 65.31 0.4, 82.5 16.5 M49.5 16.5 C67.12 -1.62, 66.11 -0.45, 82.5 16.5" stroke="#1e1e1e" stroke-width="2" fill="none"></path></g><g transform="translate(1850.1811725703465 380.73420620688853) rotate(0 25.85999870300293 25)"><text x="25.85999870300293" y="17.52" font-family="Virgil, Segoe UI Emoji" font-size="20px" fill="#1e1e1e" text-anchor="middle" style="white-space: pre;" direction="ltr" dominant-baseline="alphabetic">vault</text><text x="25.85999870300293" y="42.519999999999996" font-family="Virgil, Segoe UI Emoji" font-size="20px" fill="#1e1e1e" text-anchor="middle" style="white-space: pre;" direction="ltr" dominant-baseline="alphabetic">2</text></g><g stroke-linecap="round" transform="translate(1541.2911712733494 224.73420620688853) rotate(0 111.5 107)"><path d="M140 27 C148.82 37.12, 161.66 50.41, 195 81 M140 27 C156.23 41.87, 170.82 57.15, 195 81 M195 81 C222.72 109.3, 223.57 106.16, 195 135 M195 81 C221.41 108.54, 224.38 107.09, 195 135 M195 135 C176.77 149.26, 161.08 166.96, 140 187 M195 135 C180.98 148.37, 166.33 161.65, 140 187 M140 187 C112.39 214.21, 112.45 213.21, 84 187 M140 187 C111.41 215.27, 109.83 216.2, 84 187 M84 187 C62.15 169.11, 43.13 149.04, 28 135 M84 187 C65.29 168.97, 47.74 152.12, 28 135 M28 135 C0.85 106.76, -1.62 109.76, 28 81 M28 135 C1.17 106.68, -0.08 106.61, 28 81 M28 81 C46.12 61.91, 66.26 44.45, 84 27 M28 81 C41.71 67.08, 54.31 54.5, 84 27 M84 27 C112.97 -1.41, 112.1 -0.39, 140 27 M84 27 C111.11 -2.01, 111.33 1.92, 140 27" stroke="#1e1e1e" stroke-width="2" fill="none"></path></g><g transform="translate(1612.2111694422947 319.23420620688853) rotate(0 40.83000183105469 12.5)"><text x="40.83000183105469" y="17.52" font-family="Virgil, Segoe UI Emoji" font-size="20px" fill="#1e1e1e" text-anchor="middle" style="white-space: pre;" direction="ltr" dominant-baseline="alphabetic">Protocol</text></g><g stroke-linecap="round"><g transform="translate(1760.2911712733494 330.73420620688853) rotate(0 26 -34.5)"><path d="M0.77 -0.15 C9.38 -11.69, 42.24 -57.63, 50.96 -69.26" stroke="#1e1e1e" stroke-width="2.5" fill="none" stroke-dasharray="8 10"></path></g></g><mask></mask><g stroke-linecap="round"><g transform="translate(1761.1896826268571 338.27575137408144) rotate(0 25.5 32)"><path d="M-1.04 -0.26 C7.51 10.28, 43.47 52.58, 52.09 63.1" stroke="#1e1e1e" stroke-width="2.5" fill="none" stroke-dasharray="8 10"></path></g></g><mask></mask><g stroke-linecap="round" transform="translate(1577.2911712733494 433.73420620688853) rotate(0 74.5 37.5)"><path d="M18.75 0 C41 -1.62, 64.29 -1.29, 130.25 0 M18.75 0 C58.76 1.26, 100.75 0.63, 130.25 0 M130.25 0 C142.94 -0.28, 148.76 5.11, 149 18.75 M130.25 0 C140.72 0.22, 148.83 5.31, 149 18.75 M149 18.75 C149.37 30.51, 148.99 43.97, 149 56.25 M149 18.75 C148.83 30.95, 148.14 43, 149 56.25 M149 56.25 C150.37 67.81, 143.34 73.55, 130.25 75 M149 56.25 C150.28 68.96, 143.01 75.8, 130.25 75 M130.25 75 C102.49 76.53, 76.53 75.55, 18.75 75 M130.25 75 C104.19 75.41, 77.09 75.38, 18.75 75 M18.75 75 C6.92 75.77, -1 68.39, 0 56.25 M18.75 75 C4.7 76.26, -0.91 67.43, 0 56.25 M0 56.25 C-0.96 40.82, 0.06 27.73, 0 18.75 M0 56.25 C-0.4 46.76, -0.31 39.86, 0 18.75 M0 18.75 C0.02 4.79, 6.8 -1.78, 18.75 0 M0 18.75 C0.51 6.27, 7.27 0.33, 18.75 0" stroke="#1e1e1e" stroke-width="2" fill="none"></path></g><g transform="translate(1610.161166390537 458.73420620688853) rotate(0 41.6300048828125 12.5)"><text x="41.6300048828125" y="17.52" font-family="Virgil, Segoe UI Emoji" font-size="20px" fill="#1e1e1e" text-anchor="middle" style="white-space: pre;" direction="ltr" dominant-baseline="alphabetic">liquidate</text></g><g stroke-linecap="round" transform="translate(1182.3850397781575 490.21957105905244) rotate(0 134.6488139212738 137.25731757391804)"><path d="M154.08 2 C168.17 2, 182.78 8.55, 195.68 15.21 C208.59 21.87, 221.44 31.41, 231.52 41.95 C241.59 52.49, 249.96 64.97, 256.15 78.45 C262.34 91.92, 267.1 107.82, 268.65 122.8 C270.2 137.77, 268.88 153.78, 265.47 168.29 C262.06 182.79, 255.76 197.31, 248.19 209.81 C240.61 222.32, 231.18 233.93, 220.04 243.33 C208.9 252.74, 195.06 261.02, 181.34 266.25 C167.63 271.47, 152.42 274.45, 137.76 274.7 C123.1 274.96, 107.2 272.49, 93.39 267.78 C79.58 263.08, 66.36 255.18, 54.89 246.48 C43.42 237.78, 32.96 227.61, 24.55 215.56 C16.14 203.52, 8.59 188.54, 4.42 174.2 C0.25 159.87, -1.45 144.39, -0.48 129.53 C0.49 114.68, 4.52 98.97, 10.26 85.05 C15.99 71.13, 24.39 57.21, 33.92 46 C43.45 34.78, 54.89 24.88, 67.43 17.76 C79.97 10.65, 92.7 5.58, 109.18 3.32 C125.66 1.07, 155.06 3.25, 166.29 4.22 C177.53 5.19, 176.99 6.88, 176.58 9.12 M97.17 6.15 C109.74 0.2, 125.61 -0.84, 139.92 -0.13 C154.22 0.57, 169.42 5.03, 183.01 10.38 C196.59 15.73, 209.94 22.22, 221.43 31.96 C232.92 41.69, 244.28 55.92, 251.95 68.77 C259.63 81.63, 264.85 94.71, 267.47 109.08 C270.1 123.45, 269.58 140.36, 267.69 155 C265.8 169.64, 262.49 183.68, 256.15 196.9 C249.8 210.13, 240.17 223.92, 229.61 234.35 C219.05 244.77, 206 252.73, 192.8 259.46 C179.6 266.2, 164.78 272.95, 150.41 274.77 C136.04 276.6, 120.7 273.93, 106.59 270.4 C92.48 266.87, 78.19 261.06, 65.75 253.6 C53.31 246.13, 41.28 236.73, 31.94 225.62 C22.6 214.51, 14.94 200.58, 9.71 186.93 C4.49 173.29, 1.02 158.57, 0.59 143.73 C0.17 128.89, 2.79 112.45, 7.16 97.88 C11.52 83.31, 18.63 68.65, 26.8 56.32 C34.96 43.99, 44.42 32.15, 56.15 23.88 C67.88 15.62, 90.26 9.48, 97.18 6.74 C104.1 4, 97.33 5.5, 97.67 7.47" stroke="#1e1e1e" stroke-width="2" fill="none"></path></g><g transform="translate(1247.6627606348636 614.9213086089776) rotate(0 69.16000366210938 12.5)"><text x="69.16000366210938" y="17.52" font-family="Virgil, Segoe UI Emoji" font-size="20px" fill="#1e1e1e" text-anchor="middle" style="white-space: pre;" direction="ltr" dominant-baseline="alphabetic">Express Relay</text></g><g mask="url(#mask-YZaDvYBkKeEPVf4syxOUU)" stroke-linecap="round"><g transform="translate(1442.66121321657 563.4892373600615) rotate(0 198.24367252572176 -55.983433375834124)"><path d="M0.11 -0.17 C36.39 1.67, 174.6 22.57, 218.4 10.53 C262.19 -1.52, 233.02 -49.52, 262.89 -72.44 C292.75 -95.36, 375.05 -117.81, 397.57 -126.98 M-1.29 -1.3 C34.76 0.72, 172.96 23.33, 217.38 11.71 C261.79 0.08, 235.16 -48.09, 265.22 -71.06 C295.29 -94.04, 375.85 -116.72, 397.77 -126.13" stroke="#1e1e1e" stroke-width="1" fill="none"></path></g><g transform="translate(1442.66121321657 563.4892373600615) rotate(0 198.24367252572176 -55.983433375834124)"><path d="M378.55 -110.15 C385.26 -116.16, 391.31 -123.44, 397.77 -126.13 M378.55 -110.15 C384.82 -115.82, 390.53 -119.63, 397.77 -126.13" stroke="#1e1e1e" stroke-width="1" fill="none"></path></g><g transform="translate(1442.66121321657 563.4892373600615) rotate(0 198.24367252572176 -55.983433375834124)"><path d="M372.77 -126.24 C381.5 -126.47, 389.63 -127.96, 397.77 -126.13 M372.77 -126.24 C380.82 -126.91, 388.31 -125.74, 397.77 -126.13" stroke="#1e1e1e" stroke-width="1" fill="none"></path></g></g><mask id="mask-YZaDvYBkKeEPVf4syxOUU"><rect x="0" y="0" fill="#fff" width="1940.3273054016636" height="801.1895152145228"></rect><rect x="1678.2205671132078" y="524.3492285215802" fill="#000" width="20.560001373291016" height="25" opacity="1"></rect></mask><g transform="translate(1678.2205671132078 524.3492285215802) rotate(0 -37.31568137091574 -16.843424537352917)"><text x="10.280000686645508" y="17.52" font-family="Virgil, Segoe UI Emoji" font-size="20px" fill="#1e1e1e" text-anchor="middle" style="white-space: pre;" direction="ltr" dominant-baseline="alphabetic">liq</text></g><g mask="url(#mask-NCUNYqwAcK8lEPgpbooli)" stroke-linecap="round"><g transform="translate(1810.142449647321 409.0917986855627) rotate(0 -205.37223197214053 49.88140464728326)"><path d="M-1.06 0.11 C-44.39 1.81, -191.87 -6.94, -260.09 9.51 C-328.31 25.96, -385.28 83.69, -410.37 98.8 M0.58 -0.87 C-42.9 1.05, -192.5 -5.96, -261.09 10.79 C-329.67 27.54, -386.06 84.5, -410.94 99.61" stroke="#1e1e1e" stroke-width="1" fill="none"></path></g><g transform="translate(1810.142449647321 409.0917986855627) rotate(0 -205.37223197214053 49.88140464728326)"><path d="M-397.23 78.71 C-401.11 84.46, -406.07 91.26, -410.94 99.61 M-397.23 78.71 C-400.57 83.5, -403.05 88.05, -410.94 99.61" stroke="#1e1e1e" stroke-width="1" fill="none"></path></g><g transform="translate(1810.142449647321 409.0917986855627) rotate(0 -205.37223197214053 49.88140464728326)"><path d="M-387 92.41 C-393.75 94.12, -401.66 96.97, -410.94 99.61 M-387 92.41 C-392.59 94.22, -397.33 95.76, -410.94 99.61" stroke="#1e1e1e" stroke-width="1" fill="none"></path></g></g><mask id="mask-NCUNYqwAcK8lEPgpbooli"><rect x="0" y="0" fill="#fff" width="2320.886913591602" height="608.8546079801292"></rect><rect x="1508.4624493421452" y="406.5917986855627" fill="#000" width="83.36000061035156" height="25" opacity="1"></rect></mask><g transform="translate(1508.4624493421452 406.5917986855627) rotate(0 96.50091410344714 51.87088820196317)"><text x="41.68000030517578" y="17.52" font-family="Virgil, Segoe UI Emoji" font-size="20px" fill="#1e1e1e" text-anchor="middle" style="white-space: pre;" direction="ltr" dominant-baseline="alphabetic">liq bonus</text></g><g transform="translate(1668.753569547138 149.3960456027146) rotate(0 68.06063751234967 12.5)"><text x="0" y="17.52" font-family="Virgil, Segoe UI Emoji" font-size="20px" fill="#1e1e1e" text-anchor="start" style="white-space: pre;" direction="ltr" dominant-baseline="alphabetic">Target chain</text></g><g stroke-linecap="round"><g transform="translate(998.2649297865732 31.307636394390215) rotate(0 1.3042518263220018 431.7073545126181)"><path d="M-0.46 -1.19 C-0.02 142.8, 2.25 718.88, 2.9 862.92" stroke="#1e1e1e" stroke-width="1.5" fill="none" stroke-dasharray="8 9"></path></g></g><mask></mask><g stroke-linecap="round" transform="translate(1245.7619009776777 174.46446147972597) rotate(0 89 89)"><path d="M62.3 3.6 C72.3 -1.04, 84.86 -0.57, 96.23 0.32 C107.6 1.21, 120.47 3.63, 130.54 8.93 C140.61 14.23, 149.32 23.45, 156.63 32.12 C163.94 40.79, 170.76 50.41, 174.41 60.96 C178.07 71.5, 179.71 83.91, 178.55 95.36 C177.38 106.82, 172.7 119.34, 167.4 129.68 C162.11 140.02, 155.31 150.2, 146.78 157.38 C138.26 164.56, 127 169.42, 116.25 172.77 C105.5 176.12, 93.64 178.31, 82.28 177.49 C70.92 176.67, 58.39 172.96, 48.09 167.85 C37.8 162.74, 27.9 155.34, 20.49 146.81 C13.08 138.28, 7.04 127.39, 3.65 116.67 C0.25 105.94, -0.78 93.87, 0.1 82.46 C0.97 71.05, 3.73 58.28, 8.92 48.18 C14.11 38.09, 21.78 29.51, 31.24 21.89 C40.7 14.27, 59.14 5.61, 65.69 2.45 C72.24 -0.71, 70.09 1.54, 70.52 2.94 M82.47 0.16 C93.18 -1.77, 107.02 1.69, 117.81 5.33 C128.59 8.98, 138.81 14.92, 147.18 22.03 C155.55 29.14, 163.1 37.67, 168.02 48 C172.94 58.33, 175.57 72.45, 176.71 84.01 C177.86 95.57, 178.34 107.03, 174.89 117.37 C171.45 127.71, 163.65 137.54, 156.04 146.07 C148.43 154.59, 139.22 163.25, 129.24 168.5 C119.26 173.74, 107.32 176.63, 96.14 177.53 C84.97 178.43, 73.01 177.36, 62.18 173.91 C51.35 170.46, 39.8 164.52, 31.16 156.83 C22.51 149.13, 15.67 137.99, 10.3 127.75 C4.93 117.51, -0.32 106.51, -1.07 95.38 C-1.81 84.24, 2.26 71.54, 5.83 60.94 C9.41 50.33, 13.27 40.34, 20.38 31.75 C27.5 23.15, 38.34 14.61, 48.53 9.35 C58.72 4.09, 75.76 1.51, 81.53 0.2 C87.3 -1.12, 82.67 -0.09, 83.15 1.44" stroke="#1e1e1e" stroke-width="2" fill="none"></path></g><g transform="translate(1293.229398977954 251.0319579541232) rotate(0 41.599998474121094 12.5)"><text x="41.599998474121094" y="17.52" font-family="Virgil, Segoe UI Emoji" font-size="20px" fill="#1e1e1e" text-anchor="middle" style="white-space: pre;" direction="ltr" dominant-baseline="alphabetic">searcher</text></g><g stroke-linecap="round" transform="translate(1018.8220831976305 252.71957105905267) rotate(0 89 89)"><path d="M117.47 4.32 C128.15 6.54, 139.32 14.17, 147.91 21.87 C156.5 29.57, 164.06 40.22, 169 50.53 C173.95 60.84, 176.91 72.38, 177.58 83.75 C178.25 95.11, 176.61 108, 173 118.73 C169.39 129.46, 163.46 139.79, 155.94 148.13 C148.42 156.46, 138.32 163.91, 127.87 168.75 C117.43 173.58, 104.5 176.27, 93.28 177.15 C82.06 178.02, 71.13 177.66, 60.57 174.02 C50.01 170.38, 38.67 162.98, 29.91 155.31 C21.15 147.64, 12.99 138.12, 8.02 128.01 C3.04 117.9, 0.6 105.9, 0.07 94.66 C-0.47 83.43, 0.99 71.36, 4.8 60.6 C8.6 49.84, 15.24 38.62, 22.89 30.09 C30.54 21.57, 40.64 14.6, 50.69 9.47 C60.75 4.33, 71.02 -0.46, 83.22 -0.71 C95.41 -0.97, 116.34 6.1, 123.87 7.93 C131.41 9.76, 128.91 9.09, 128.44 10.24 M88.29 -0.55 C99.43 -2, 112.47 2.37, 123.17 6.64 C133.88 10.91, 144.64 17.35, 152.52 25.06 C160.4 32.78, 166.42 42.33, 170.46 52.94 C174.49 63.56, 176.38 77.2, 176.72 88.75 C177.05 100.29, 176.7 111.84, 172.48 122.23 C168.25 132.62, 159.34 142.77, 151.37 151.11 C143.41 159.45, 134.79 167.9, 124.71 172.25 C114.62 176.6, 102.15 177.56, 90.87 177.21 C79.59 176.86, 67.81 174.04, 57.03 170.14 C46.26 166.23, 34.58 161.67, 26.23 153.76 C17.88 145.85, 11.26 133.18, 6.92 122.69 C2.57 112.2, 0.22 101.75, 0.16 90.81 C0.1 79.88, 2.26 67.79, 6.54 57.08 C10.82 46.38, 18.17 35.07, 25.84 26.57 C33.51 18.07, 42.17 10.28, 52.57 6.08 C62.97 1.88, 82.28 1.97, 88.23 1.38 C94.18 0.79, 88.29 1.23, 88.27 2.52" stroke="#1e1e1e" stroke-width="2" fill="none"></path></g><g transform="translate(1066.2895811979067 329.2870675334499) rotate(0 41.599998474121094 12.5)"><text x="41.599998474121094" y="17.52" font-family="Virgil, Segoe UI Emoji" font-size="20px" fill="#1e1e1e" text-anchor="middle" style="white-space: pre;" direction="ltr" dominant-baseline="alphabetic">searcher</text></g><g mask="url(#mask-rBH-7DqR8vh0R1uw3vl0A)" stroke-linecap="round"><g transform="translate(1398.7153832195077 504.45141084285774) rotate(0 77.83361769831254 -75.32697681829609)"><path d="M-1.16 -0.34 C4.14 -16.15, 4.89 -70.07, 30.99 -94.99 C57.09 -119.92, 134.62 -140.75, 155.43 -149.89 M0.43 -1.57 C5.76 -17.21, 4.98 -68.75, 30.67 -93.8 C56.35 -118.84, 133.63 -142.13, 154.53 -151.83" stroke="#1e1e1e" stroke-width="1" fill="none"></path></g><g transform="translate(1398.7153832195077 504.45141084285774) rotate(0 77.83361769831254 -75.32697681829609)"><path d="M135.73 -135.36 C139.51 -136.98, 143.32 -143.16, 154.53 -151.83 M135.73 -135.36 C142.08 -140.98, 149.88 -148.41, 154.53 -151.83" stroke="#1e1e1e" stroke-width="1" fill="none"></path></g><g transform="translate(1398.7153832195077 504.45141084285774) rotate(0 77.83361769831254 -75.32697681829609)"><path d="M129.54 -151.3 C134.72 -149.2, 139.96 -151.7, 154.53 -151.83 M129.54 -151.3 C138.16 -151.17, 148.21 -152.8, 154.53 -151.83" stroke="#1e1e1e" stroke-width="1" fill="none"></path></g></g><mask id="mask-rBH-7DqR8vh0R1uw3vl0A"><rect x="0" y="0" fill="#fff" width="1654.3826186161327" height="755.1053644794499"></rect><rect x="1381.7035331064712" y="397.6108524597753" fill="#000" width="93.62000274658203" height="25" opacity="1"></rect></mask><g transform="translate(1381.7035331064712 397.6108524597752) rotate(0 94.14544942070836 30.75567269954513)"><text x="46.810001373291016" y="17.52" font-family="Virgil, Segoe UI Emoji" font-size="20px" fill="#1e1e1e" text-anchor="middle" style="white-space: pre;" direction="ltr" dominant-baseline="alphabetic">rev share</text></g><g mask="url(#mask-mKc1EZfg5cDKmmPoN5eGc)" stroke-linecap="round"><g transform="translate(1165.2091635558031 417.3661769857348) rotate(0 43.040327166694624 44.34457950507925)"><path d="M-0.95 0.54 C13.29 15.55, 71.72 74.29, 86.02 89.03" stroke="#1e1e1e" stroke-width="1.5" fill="none" stroke-dasharray="8 9"></path></g><g transform="translate(1165.2091635558031 417.3661769857348) rotate(0 43.040327166694624 44.34457950507925)"><path d="M63.45 78.28 C72.12 82.1, 79.63 83.96, 86.02 89.03" stroke="#1e1e1e" stroke-width="1.5" fill="none"></path></g><g transform="translate(1165.2091635558031 417.3661769857348) rotate(0 43.040327166694624 44.34457950507925)"><path d="M75.64 66.29 C79.96 74.19, 83.24 80.22, 86.02 89.03" stroke="#1e1e1e" stroke-width="1.5" fill="none"></path></g></g><mask id="mask-mKc1EZfg5cDKmmPoN5eGc"><rect x="0" y="0" fill="#fff" width="1351.2898178891924" height="606.0553359958933"></rect><rect x="1195.2894906843508" y="449.2107564908141" fill="#000" width="25.920000076293945" height="25" opacity="1"></rect></mask><g transform="translate(1195.2894906843508 449.210756490814) rotate(0 12.454239698871902 12.942662856355355)"><text x="12.960000038146973" y="17.52" font-family="Virgil, Segoe UI Emoji" font-size="20px" fill="#1e1e1e" text-anchor="middle" style="white-space: pre;" direction="ltr" dominant-baseline="alphabetic">bid</text></g><g mask="url(#mask-1mGRVhKJm3zGUyqhWR3t1)" stroke-linecap="round"><g transform="translate(1318.1979763830668 358.202631439008) rotate(0 -3.952156239100873 62.749946136561675)"><path d="M-0.68 -1.08 C-2 19.98, -7.57 104.7, -8.94 125.88" stroke="#1e1e1e" stroke-width="1.5" fill="none" stroke-dasharray="8 9"></path></g><g transform="translate(1318.1979763830668 358.202631439008) rotate(0 -3.952156239100873 62.749946136561675)"><path d="M-15.94 101.89 C-16.3 105.42, -12.34 110.75, -8.94 125.88" stroke="#1e1e1e" stroke-width="1.5" fill="none"></path></g><g transform="translate(1318.1979763830668 358.202631439008) rotate(0 -3.952156239100873 62.749946136561675)"><path d="M1.12 103 C-2.94 106.19, -2.7 111.28, -8.94 125.88" stroke="#1e1e1e" stroke-width="1.5" fill="none"></path></g></g><mask id="mask-1mGRVhKJm3zGUyqhWR3t1"><rect x="0" y="0" fill="#fff" width="1426.1022888612686" height="583.7025237121313"></rect><rect x="1301.2858201058189" y="408.45257757556965" fill="#000" width="25.920000076293945" height="25" opacity="1"></rect></mask><g transform="translate(1301.2858201058186 408.45257757556965) rotate(0 12.10377692915506 12.154305848106787)"><text x="12.960000038146973" y="17.52" font-family="Virgil, Segoe UI Emoji" font-size="20px" fill="#1e1e1e" text-anchor="middle" style="white-space: pre;" direction="ltr" dominant-baseline="alphabetic">bid</text></g><g stroke-linecap="round" transform="translate(1541.6490946052695 537.856159974247) rotate(0 109.40247972791224 100.74050222256619)"><path d="M137.5 25.25 C156.64 46.11, 178.99 64.38, 191.3 75.75 M137.5 25.25 C153.72 41.29, 171.26 57.88, 191.3 75.75 M191.3 75.75 C220.71 101.73, 218.66 99.75, 191.3 126.25 M191.3 75.75 C217.24 101.93, 217.55 99.17, 191.3 126.25 M191.3 126.25 C176.81 140.64, 164.66 150.26, 137.5 176.23 M191.3 126.25 C176.99 140.58, 162.05 153.86, 137.5 176.23 M137.5 176.23 C109.16 201.95, 111.25 202.99, 82.5 176.23 M137.5 176.23 C111.89 201.71, 108.72 202.93, 82.5 176.23 M82.5 176.23 C65.74 160.92, 47.06 142.17, 27.5 126.25 M82.5 176.23 C62.62 158.2, 42.11 140.45, 27.5 126.25 M27.5 126.25 C0.75 102.04, 2 100.23, 27.5 75.75 M27.5 126.25 C0.08 101.78, 2.11 100.84, 27.5 75.75 M27.5 75.75 C47.94 57.26, 64.08 41.91, 82.5 25.25 M27.5 75.75 C44.61 59.74, 62.08 42.67, 82.5 25.25 M82.5 25.25 C109.75 1.8, 108.78 0.02, 137.5 25.25 M82.5 25.25 C108.85 -0.82, 110.09 -1.87, 137.5 25.25" stroke="#1e1e1e" stroke-width="2" fill="none"></path></g><g transform="translate(1601.8203356899287 601.2264110855301) rotate(0 49.029998779296875 37.5)"><text x="49.029998779296875" y="17.52" font-family="Virgil, Segoe UI Emoji" font-size="20px" fill="#1e1e1e" text-anchor="middle" style="white-space: pre;" direction="ltr" dominant-baseline="alphabetic">Express </text><text x="49.029998779296875" y="42.519999999999996" font-family="Virgil, Segoe UI Emoji" font-size="20px" fill="#1e1e1e" text-anchor="middle" style="white-space: pre;" direction="ltr" dominant-baseline="alphabetic">Relay </text><text x="49.029998779296875" y="67.52" font-family="Virgil, Segoe UI Emoji" font-size="20px" fill="#1e1e1e" text-anchor="middle" style="white-space: pre;" direction="ltr" dominant-baseline="alphabetic">Entrypoint</text></g><g transform="translate(349.5952701648397 12.463233875309925) rotate(0 105.17400360107422 22.5)"><text x="0" y="31.536" font-family="Virgil, Segoe UI Emoji" font-size="36px" fill="#1e1e1e" text-anchor="start" style="white-space: pre;" direction="ltr" dominant-baseline="alphabetic">Status Quo</text></g><g transform="translate(1368.2676592630478 10) rotate(0 169.91998291015625 22.5)"><text x="0" y="31.536" font-family="Virgil, Segoe UI Emoji" font-size="36px" fill="#1e1e1e" text-anchor="start" style="white-space: pre;" direction="ltr" dominant-baseline="alphabetic">With Express Relay</text></g></svg>
